<svg width="137" height="43" viewBox="0 0 137 43" fill="none" xmlns="http://www.w3.org/2000/svg">
<path d="M77.3596 30.3359C75.5049 30.3359 74.0674 31.5921 72.8711 34.6878L72.5292 35.5957C71.6014 37.9959 71.1606 38.6656 69.8935 38.6656H53.9338C52.4699 38.6656 51.787 37.8897 51.1276 35.4895C50.4447 32.874 49.6901 31.6982 47.3229 29.6166L46.884 29.2147L53.4213 23.0769H50.568C50.4066 23.0769 44.2229 28.6095 44.2229 28.921C44.2229 28.921 44.2438 31.2696 44.3463 31.3242L45.7602 32.1517C48.2507 33.7531 48.9582 35.2474 48.9582 36.4232C48.9582 37.8371 47.81 38.6656 45.6632 38.6656H42.0762C41.8077 38.6656 41.6608 38.8243 41.6608 39.1458V41.3079C41.6608 41.6016 41.8077 41.7623 42.0762 41.7623H45.4183C47.5179 41.7623 49.2257 40.6123 49.8116 38.238C50.5254 40.7344 51.5176 41.7077 53.1919 41.7573C53.2109 41.7603 53.23 41.7623 53.2508 41.7623H69.3557C69.372 41.7623 69.3838 41.7593 69.4011 41.7593C70.8912 41.7286 71.8208 41.1084 72.7477 39.5715C74.6759 41.3595 75.9457 42.0292 77.3352 42.0292C79.8737 42.0292 81.5081 39.7868 81.5081 36.2624C81.5081 32.0971 79.9944 30.3349 77.3587 30.3349L77.3596 30.3359ZM77.7007 38.9047C76.6286 38.9047 75.504 38.2925 74.09 36.7169C74.1635 36.5819 74.2107 36.45 74.2606 36.315L74.578 35.5679C75.2346 33.9149 75.9919 33.2481 77.1637 33.2481C78.5541 33.2481 79.579 34.5558 79.579 36.451C79.579 37.9462 78.896 38.9057 77.6998 38.9057L77.7007 38.9047Z" fill="white"/>
<path d="M135.961 26.8955L133.757 24.4845C133.692 24.413 133.526 24.413 133.428 24.4845L131.488 26.6792C131.389 26.7874 131.389 26.967 131.488 27.0751L133.692 29.4862C133.79 29.5587 133.955 29.5587 134.021 29.4862L135.961 27.2914C136.06 27.1833 136.06 27.0037 135.961 26.8955Z" fill="white"/>
<path d="M120.798 26.8955L118.594 24.4845C118.529 24.413 118.363 24.413 118.265 24.4845L116.325 26.6792C116.226 26.7874 116.226 26.967 116.325 27.0751L118.529 29.4862C118.627 29.5587 118.792 29.5587 118.858 29.4862L120.798 27.2914C120.897 27.1833 120.897 27.0037 120.798 26.8955Z" fill="white"/>
<path d="M135.132 31.2998L135.339 35.2498C135.583 39.4667 133.898 41.7637 131.142 41.7637H128.533C128.505 41.7637 128.48 41.7608 128.457 41.7558C125.847 41.6963 124.647 40.2536 124.407 37.144C123.774 37.4109 123.09 37.8107 122.237 38.4001L120.235 39.7337C117.941 41.2825 116.601 41.7627 114.137 41.7627H94.4927C94.4709 41.7627 94.4546 41.7598 94.4355 41.7578C92.9481 41.7111 91.9876 40.8549 91.4181 39.0669C90.8557 40.961 89.4654 41.9503 87.051 41.9503C83.8059 41.9503 82.3421 40.2397 82.1217 36.7183C82.1217 36.6012 84.1216 36.5318 84.1234 36.5318C84.1941 36.5318 84.2685 36.5834 84.2921 36.7183C84.5859 38.1322 85.5373 38.8546 87.2451 38.8546C89.5624 38.8546 90.2961 38.027 90.2961 36.7709C90.2961 36.2391 90.1728 35.7043 89.9787 34.7964L88.4723 28.7449H90.9229L92.6143 35.6249C93.1504 37.8415 93.7363 38.669 95.1765 38.669H114.088C116.82 38.669 118.187 38.1868 119.773 37.3613L120.969 36.7203C121.725 36.3462 122.359 36.0535 122.945 35.8124C122.751 35.7578 122.553 35.6805 122.335 35.6259C119.382 34.4789 118.455 34.212 117.724 34.212C116.682 34.212 116.03 34.6376 115.814 35.9999H113.387C113.587 32.678 114.925 31.1679 117.258 31.1679C118.26 31.1679 119.26 31.4616 122.238 32.5818C124.384 33.3835 125.433 33.5442 127.603 33.5442H128.308V36.6399H127.385C126.994 36.6399 126.629 36.6399 126.311 36.6657C126.628 38.161 127.653 38.669 129.214 38.669H130.924C132.559 38.669 133.168 37.654 132.948 35.2508L132.532 31.3008H135.133L135.132 31.2998Z" fill="white"/>
<path d="M8.06198 18.1071L9.36619 11.2955C9.71174 9.51947 9.81876 7.86049 7.5831 7.86049C5.98685 7.86049 4.09765 9.57801 3.53896 12.4306L2.44789 18.1071H0L2.36808 5.91078H4.81597L4.36339 8.18097C5.26854 6.84148 7.02442 5.67761 8.64697 5.67761C11.8667 5.67761 12.3719 8.38437 11.8395 11.3541L10.5353 18.1071H8.06107H8.06198Z" fill="white"/>
<path d="M21.5267 18.1071L21.9793 15.6623C20.9681 17.1764 19.4779 18.3691 17.8817 18.3691C15.3803 18.3691 13.8375 16.5354 13.8375 13.8277C13.8375 9.72288 16.5512 5.67761 20.8084 5.67761C23.5221 5.67761 25.092 7.04588 25.9436 7.91903L23.9483 18.1071H21.5267ZM16.3652 13.4496C16.3652 14.9925 17.0835 15.9818 18.6 15.9818C21.7662 15.9818 22.8573 11.4702 23.3098 8.93704C22.6713 8.29706 21.846 8.00535 20.7023 8.00535C18.1483 8.00535 16.3652 10.5375 16.3652 13.4486V13.4496Z" fill="white"/>
<path d="M26.8443 18.108L30.2499 0.555688L32.8039 0.0317993L29.2913 18.108H26.8434H26.8443ZM37.6743 18.108H34.8274L30.7832 11.0057L35.7588 5.91166H39.1109L33.5767 11.3837L37.6743 18.108Z" fill="white"/>
<path d="M46.6444 18.107L47.7355 12.373C47.9214 11.3837 48.0811 10.5096 48.0811 9.84083C48.0811 8.67696 47.6557 8.00722 46.1383 8.00722C44.621 8.00722 42.6792 9.6662 42.1205 12.5188L41.0294 18.108H38.5815L41.9872 0.555688L44.5412 0.0317993L42.9449 8.24039C43.8501 6.84335 45.6586 5.67849 47.2557 5.67849C49.5703 5.67849 50.5552 6.87212 50.5552 9.3467C50.5552 10.1911 50.4219 11.2101 50.2097 12.3154L49.1186 18.108H46.6444V18.107Z" fill="white"/>
<path d="M62.4759 18.1069H60.0815L60.5341 15.6621C59.443 17.3796 58.0064 18.3689 56.4101 18.3689C53.9359 18.3689 52.366 16.5353 52.366 13.8275C52.366 9.95588 54.8674 5.735 58.965 5.735C60.4289 5.735 61.5988 6.1428 62.2908 6.69546C62.6364 4.71599 63.089 2.53312 63.4354 0.582429L65.9631 0L62.4777 18.1059L62.4759 18.1069ZM54.8928 13.4495C54.8928 14.9924 55.6111 15.9816 57.1275 15.9816C59.9745 15.9816 61.119 12.7509 61.5979 10.1891L61.8374 8.93787C61.1989 8.29789 60.3735 8.00618 59.2561 8.00618C56.6749 8.00618 54.8928 10.5383 54.8928 13.4495Z" fill="white"/>
<path d="M68.3565 13.3326C68.3565 15.1086 69.5274 16.0393 71.4429 16.0393C72.6138 16.0393 73.5978 15.8061 74.9819 14.8457L75.8598 16.7964C73.9706 18.0773 72.2147 18.3393 70.8842 18.3393C67.6645 18.3393 65.8823 16.3598 65.8823 13.2165C65.8823 8.559 68.995 5.67761 72.5077 5.67761C75.4607 5.67761 77.0307 7.71562 77.0307 10.3351C77.0307 11.0624 76.9246 11.8194 76.6579 12.6926H68.4091C68.3556 12.9833 68.3556 13.1877 68.3556 13.3326H68.3565ZM68.8617 10.6258H74.6889V10.3638C74.6889 8.79218 73.8645 7.86049 72.4542 7.86049C70.8579 7.86049 69.4739 8.79218 68.8626 10.6258H68.8617Z" fill="white"/>
<path d="M91.2607 18.1079L92.8043 10.452C93.0437 9.25836 92.8578 7.77401 91.3677 7.77401C90.3301 7.77401 88.9733 8.5013 88.3611 11.5583L87.0306 18.1079H84.5564L86.1 10.5691C86.3395 9.34667 86.1799 7.775 84.6634 7.775C83.7592 7.775 82.269 8.56084 81.7367 11.3847C80.992 15.2265 80.4061 18.1089 80.4061 18.1089H77.9583L80.3263 5.91261H82.7479L82.4024 7.54282C83.4136 6.14578 84.7441 5.67944 85.808 5.67944C87.4841 5.67944 88.4953 6.49405 88.6286 8.1828C89.5864 6.58137 91.0502 5.67944 92.3535 5.67944C95.0944 5.67944 95.6794 7.94963 95.1742 10.6276L93.7376 18.1089H91.2634L91.2607 18.1079Z" fill="white"/>
<path d="M104.858 18.1071L105.31 15.6623C104.299 17.1764 102.809 18.3691 101.213 18.3691C98.7114 18.3691 97.1687 16.5354 97.1687 13.8277C97.1687 9.72288 99.8823 5.67761 104.14 5.67761C106.853 5.67761 108.423 7.04588 109.275 7.91903L107.28 18.1071H104.858ZM99.6955 13.4496C99.6955 14.9925 100.414 15.9818 101.93 15.9818C105.096 15.9818 106.188 11.4702 106.64 8.93704C106.002 8.29706 105.176 8.00535 104.033 8.00535C101.479 8.00535 99.6955 10.5375 99.6955 13.4486V13.4496Z" fill="white"/>
<path d="M110.18 18.108L113.586 0.555688L116.14 0.0317993L112.628 18.108H110.18ZM121.009 18.108H118.162L114.118 11.0057L119.094 5.91166H122.446L116.912 11.3837L121.009 18.108Z" fill="white"/>
<path d="M13.3416 27.7373C12.9126 27.7373 12.4854 27.7204 12.0609 27.6857C7.46719 27.3107 3.4557 24.9492 0.459106 20.8563L2.1787 19.3501C7.9769 27.269 16.8588 26.4117 23.0896 22.0489L24.2768 24.079C20.8739 26.4613 17.0365 27.7383 13.3407 27.7383L13.3416 27.7373Z" fill="white"/>
<path d="M129.345 15.9603V17.5853H128.99V14.0053H130.49C130.863 14.0053 131.141 14.0803 131.325 14.2303C131.518 14.3869 131.615 14.6253 131.615 14.9453C131.615 15.3486 131.428 15.6369 131.055 15.8103C131.208 15.8803 131.318 15.9753 131.385 16.0953C131.455 16.2153 131.496 16.3869 131.51 16.6103L131.54 17.0753C131.55 17.2019 131.57 17.3003 131.6 17.3703C131.63 17.4403 131.685 17.5119 131.765 17.5853H131.29C131.24 17.4619 131.208 17.3269 131.195 17.1803L131.16 16.7703C131.136 16.4603 131.075 16.2486 130.975 16.1353C130.875 16.0186 130.703 15.9603 130.46 15.9603H129.345ZM129.345 15.6753H130.425C130.725 15.6753 130.938 15.6186 131.065 15.5053C131.198 15.3853 131.265 15.2153 131.265 14.9953C131.265 14.7753 131.198 14.6036 131.065 14.4803C130.938 14.3669 130.725 14.3103 130.425 14.3103H129.345V15.6753Z" fill="white"/>
<path d="M129.405 17.2264C128.28 17.2264 127.365 16.2252 127.365 14.9948C127.365 13.7643 128.28 12.7631 129.405 12.7631C130.529 12.7631 131.445 13.7643 131.445 14.9948C131.445 16.2252 130.529 17.2264 129.405 17.2264ZM129.405 13.1409C128.47 13.1409 127.711 13.9721 127.711 14.9941C127.711 16.0162 128.47 16.8474 129.405 16.8474C130.339 16.8474 131.099 16.0162 131.099 14.9941C131.099 13.9721 130.339 13.1409 129.405 13.1409Z" fill="white"/>
</svg>
