<svg width="574" height="574" viewBox="0 0 574 574" fill="none" xmlns="http://www.w3.org/2000/svg">
<path d="M173.341 151.467C173.341 151.467 234.89 198.174 328.46 110.84C411.559 33.2811 479.412 155.652 479.886 214.254C480.501 290.166 396.787 350.905 437.414 400.765C478.039 450.626 356.845 532.962 291.528 461.706C210.274 373.066 188.262 445.086 141.948 445.086C108.708 445.086 40.4633 362.492 86.5484 301.045C125.328 249.34 104.178 232.18 93.9363 214.254C79.1618 188.4 114.248 118.227 173.341 151.467Z" fill="#DEE9FF"/>
<path d="M420.44 254.683C423.749 255.913 427.363 255.995 430.803 255.204C445.214 251.897 494.769 243.138 486.159 281.538C484.283 289.156 455.261 331.825 496.591 347.399C499.621 348.555 502.823 349.186 506.064 349.264C518.791 349.527 544.008 346.521 554.561 335.779C567.312 322.801 553.382 328.955 553.382 328.955C553.382 328.955 504.912 350.107 487.791 327.665C485.886 325.168 484.673 321.542 484.326 318.42C483.723 313.008 486.126 305.855 489.283 299.627C493.557 291.2 514.072 253.289 469.529 242.246C459.269 239.802 444.366 237.609 425.151 245.698C413.941 250.417 416.424 253.191 420.44 254.683Z" fill="#BDD6F9"/>
<path d="M430.358 240.529L417.457 245.359C413.004 247.025 410.745 251.986 412.412 256.439L413.051 258.149C414.718 262.601 419.679 264.86 424.132 263.194L437.034 258.366C441.487 256.699 443.746 251.738 442.079 247.284L441.44 245.576C439.773 241.121 434.812 238.862 430.358 240.529Z" fill="#232773"/>
<path d="M351.164 254.501L308.619 270.426C306.39 271.258 305.261 273.739 306.095 275.965L306.263 276.414C307.095 278.64 309.576 279.77 311.804 278.937L354.35 263.013C356.578 262.179 357.708 259.698 356.874 257.472L356.706 257.023C355.873 254.797 353.393 253.667 351.164 254.501Z" fill="white"/>
<path d="M363.039 286.228L320.492 302.15C318.265 302.985 317.136 305.465 317.97 307.691L318.136 308.14C318.971 310.367 321.451 311.496 323.677 310.662L366.225 294.74C368.451 293.905 369.581 291.425 368.749 289.198L368.581 288.749C367.748 286.523 365.266 285.394 363.039 286.228Z" fill="white"/>
<path d="M402.321 232.849L367.838 245.754C363.383 247.421 361.124 252.384 362.791 256.836L374.566 288.294C376.233 292.746 381.194 295.005 385.646 293.339L420.131 280.434C424.584 278.767 426.843 273.806 425.176 269.352L413.403 237.894C411.736 233.442 406.775 231.183 402.321 232.849Z" fill="#30359C"/>
<path d="M371.403 241.099L336.918 254.006C332.465 255.673 330.206 260.634 331.873 265.088L345.919 302.618C347.586 307.07 352.547 309.329 357 307.663L391.485 294.758C395.937 293.091 398.196 288.13 396.53 283.676L382.483 246.146C380.816 241.692 375.855 239.433 371.403 241.099Z" fill="#242875"/>
<path d="M376.801 233.487L376.53 233.587C373.562 234.698 372.055 238.007 373.166 240.975L392.844 293.552C393.955 296.52 397.262 298.027 400.231 296.916L400.501 296.813C403.472 295.702 404.976 292.395 403.865 289.427L384.189 236.851C383.078 233.882 379.769 232.376 376.801 233.487Z" fill="#232773"/>
<path d="M25.1766 267.099C25.1766 267.099 94.4319 247.636 84.3773 292.478C82.6311 299.573 57.4958 336.104 87.4357 353.644C93.8645 357.41 101.283 359.078 108.734 359.039C122.092 358.97 143.268 356.399 152.781 346.717C165.531 333.738 151.602 339.892 151.602 339.892C151.602 339.892 111.828 356.253 91.3651 343.211C84.3781 338.759 81.2111 330.136 83.1083 322.07C84.0782 318.064 85.5548 314.198 87.5029 310.565C91.9531 302.23 112.292 264.227 67.7493 253.183C57.4885 250.74 42.5854 248.546 23.3693 256.636C4.15322 264.727 25.1766 267.099 25.1766 267.099Z" fill="#BDD6F9"/>
<path d="M162.093 329.857L149.192 334.687C144.739 336.354 142.479 341.315 144.146 345.769L144.786 347.477C146.453 351.932 151.414 354.191 155.868 352.522L168.769 347.694C173.222 346.027 175.481 341.067 173.814 336.612L173.175 334.904C171.508 330.45 166.547 328.19 162.093 329.857Z" fill="#232773"/>
<path d="M183.89 308.631L164.77 315.787C160.317 317.454 158.058 322.415 159.724 326.869L168.944 351.502C170.611 355.957 175.572 358.216 180.026 356.549L199.146 349.393C203.6 347.726 205.858 342.765 204.192 338.31L194.972 313.678C193.305 309.223 188.344 306.964 183.89 308.631Z" fill="#30359C"/>
<path d="M215.721 289.666L187.208 300.338C182.754 302.005 180.495 306.966 182.162 311.42L196.208 348.95C197.875 353.404 202.836 355.663 207.289 353.997L235.802 343.324C240.257 341.658 242.516 336.697 240.85 332.242L226.803 294.713C225.136 290.258 220.175 287.999 215.721 289.666Z" fill="#242875"/>
<path d="M221.762 281.893L221.492 281.993C218.521 283.104 217.016 286.413 218.128 289.382L237.803 341.958C238.915 344.926 242.223 346.433 245.192 345.322L245.462 345.22C248.431 344.108 249.937 340.802 248.826 337.831L229.148 285.257C228.037 282.289 224.731 280.782 221.762 281.893Z" fill="#232773"/>
<path d="M294.573 248.4C293.545 248.286 292.602 247.779 291.942 246.984C291.284 246.188 290.958 245.17 291.034 244.138L293.162 205.279C293.289 202.957 295.249 201.194 297.473 201.399L300.573 201.686C302.797 201.891 304.39 203.982 304.078 206.287L298.851 244.86C298.732 245.887 298.219 246.828 297.422 247.488C296.625 248.148 295.604 248.474 294.573 248.4Z" fill="#232773"/>
<path d="M276.203 251.747C275.883 251.841 275.549 251.872 275.217 251.837C274.887 251.8 274.565 251.7 274.274 251.54C273.981 251.382 273.725 251.167 273.516 250.907C273.306 250.648 273.151 250.349 273.056 250.031L265.459 225.858C265.238 225.171 265.299 224.423 265.627 223.781C265.957 223.137 266.527 222.651 267.216 222.43L269.182 221.836C269.52 221.737 269.875 221.711 270.223 221.756C270.572 221.801 270.906 221.918 271.207 222.1C271.509 222.28 271.769 222.522 271.972 222.809C272.175 223.096 272.316 223.422 272.386 223.767L278.017 248.535C278.175 249.199 278.075 249.9 277.739 250.497C277.402 251.091 276.855 251.538 276.203 251.747Z" fill="#232773"/>
<path d="M265.949 265.689C264.588 267.377 261.849 267.356 259.741 265.644L222.327 235.245C220.09 233.428 219.432 230.423 220.875 228.636L222.889 226.143C224.334 224.353 227.298 224.501 229.414 226.465L264.817 259.359C266.812 261.21 267.31 264.004 265.949 265.689Z" fill="#232773"/>
<path d="M283.246 344.206C284.209 344.579 284.99 345.311 285.425 346.248C285.861 347.184 285.915 348.254 285.578 349.23L273.596 386.257C272.881 388.469 270.536 389.673 268.436 388.906L265.511 387.838C263.414 387.071 262.407 384.642 263.297 382.496L278.203 346.537C278.582 345.573 279.316 344.794 280.257 344.36C281.196 343.925 282.266 343.87 283.246 344.206Z" fill="#232773"/>
<path d="M301.862 345.661C302.194 345.651 302.526 345.708 302.838 345.827C303.148 345.946 303.433 346.125 303.674 346.354C303.916 346.582 304.111 346.856 304.246 347.16C304.382 347.463 304.458 347.791 304.466 348.125L305.638 373.437C305.675 374.158 305.427 374.864 304.943 375.401C304.462 375.94 303.785 376.264 303.066 376.303L301.011 376.374C300.659 376.383 300.31 376.319 299.984 376.186C299.658 376.053 299.365 375.854 299.119 375.602C298.875 375.349 298.685 375.05 298.562 374.72C298.441 374.39 298.387 374.039 298.406 373.689L299.287 348.306C299.306 347.621 299.583 346.969 300.058 346.479C300.536 345.989 301.18 345.698 301.862 345.661Z" fill="#232773"/>
<path d="M315.335 334.799C317.082 333.516 319.724 334.236 321.323 336.429L349.736 375.375C351.431 377.702 351.302 380.775 349.449 382.136L346.866 384.032C345.013 385.393 342.182 384.493 340.638 382.054L314.808 341.21C313.357 338.912 313.588 336.083 315.335 334.799Z" fill="#232773"/>
</svg>
